<svg aria-hidden="true" style="position: absolute; width: 0; height: 0; overflow: hidden;" version="1.1" xmlns="http://www.w3.org/2000/svg" xmlns:xlink="http://www.w3.org/1999/xlink">
<defs>
<symbol id="icon-envelop" viewBox="0 0 32 32">
<path d="M28.131 4.462h-25c-1.587 0-2.885 1.298-2.885 2.885v19.231c0 1.586 1.298 2.885 2.885 2.885h25c1.587 0 2.885-1.298 2.885-2.885v-19.231c0-1.587-1.298-2.885-2.885-2.885zM12.227 17.153l-8.135 6.337v-15.073l8.135 8.736zM5.546 8.308h20.169l-10.085 7.572-10.085-7.572zM12.544 17.493l3.086 3.314 3.086-3.314 6.327 8.122h-18.826l6.327-8.122zM19.034 17.153l8.135-8.736v15.073l-8.135-6.337z"></path>
</symbol>
<symbol id="icon-facebook" viewBox="0 0 32 32">
<path d="M19.533 6h5v-6h-5c-3.86 0-7 3.14-7 7v3h-4v6h4v16h6v-16h5l1-6h-6v-3c0-0.542 0.458-1 1-1z"></path>
</symbol>
<symbol id="icon-instagram" viewBox="0 0 32 32">
<path d="M16 2.881c4.275 0 4.781 0.019 6.462 0.094 1.562 0.069 2.406 0.331 2.969 0.55 0.744 0.288 1.281 0.638 1.838 1.194 0.562 0.563 0.906 1.094 1.2 1.838 0.219 0.563 0.481 1.412 0.55 2.969 0.075 1.687 0.094 2.194 0.094 6.463s-0.019 4.781-0.094 6.463c-0.069 1.562-0.331 2.406-0.55 2.969-0.288 0.744-0.638 1.281-1.194 1.837-0.562 0.563-1.094 0.906-1.837 1.2-0.563 0.219-1.413 0.481-2.969 0.55-1.688 0.075-2.194 0.094-6.462 0.094s-4.781-0.019-6.463-0.094c-1.563-0.069-2.406-0.331-2.969-0.55-0.744-0.287-1.281-0.637-1.838-1.194-0.563-0.563-0.906-1.094-1.2-1.838-0.219-0.562-0.481-1.412-0.55-2.969-0.075-1.687-0.094-2.194-0.094-6.463s0.019-4.781 0.094-6.462c0.069-1.563 0.331-2.406 0.55-2.969 0.288-0.744 0.638-1.281 1.194-1.838 0.563-0.563 1.094-0.906 1.838-1.2 0.563-0.219 1.412-0.481 2.969-0.55 1.681-0.075 2.188-0.094 6.462-0.094zM16 0c-4.344 0-4.887 0.019-6.594 0.094-1.7 0.075-2.869 0.35-3.881 0.744-1.056 0.412-1.95 0.956-2.837 1.85-0.894 0.888-1.438 1.781-1.85 2.831-0.394 1.019-0.669 2.181-0.744 3.881-0.075 1.713-0.094 2.256-0.094 6.6s0.019 4.887 0.094 6.594c0.075 1.7 0.35 2.869 0.744 3.881 0.413 1.056 0.956 1.95 1.85 2.838 0.887 0.887 1.781 1.437 2.831 1.844 1.019 0.394 2.181 0.669 3.881 0.744 1.706 0.075 2.25 0.094 6.594 0.094s4.888-0.019 6.594-0.094c1.7-0.075 2.869-0.35 3.881-0.744 1.050-0.406 1.944-0.956 2.831-1.844s1.437-1.781 1.844-2.831c0.394-1.019 0.669-2.181 0.744-3.881 0.075-1.706 0.094-2.25 0.094-6.594s-0.019-4.888-0.094-6.594c-0.075-1.7-0.35-2.869-0.744-3.881-0.394-1.063-0.938-1.956-1.831-2.844-0.888-0.887-1.781-1.438-2.831-1.844-1.019-0.394-2.181-0.669-3.881-0.744-1.713-0.081-2.256-0.1-6.6-0.1z"></path>
<path d="M16 7.781c-4.537 0-8.219 3.681-8.219 8.219s3.681 8.219 8.219 8.219c4.538 0 8.219-3.681 8.219-8.219s-3.681-8.219-8.219-8.219zM16 21.331c-2.944 0-5.331-2.387-5.331-5.331s2.387-5.331 5.331-5.331c2.944 0 5.331 2.387 5.331 5.331s-2.387 5.331-5.331 5.331z"></path>
<path d="M26.462 7.456c0 1.060-0.859 1.919-1.919 1.919s-1.919-0.859-1.919-1.919 0.859-1.919 1.919-1.919c1.060 0 1.919 0.859 1.919 1.919z"></path>
</symbol>
<symbol id="icon-logo-photo" viewBox="0 0 45 32">
<path d="M16.68-0.087l-0.345 1.391-0.342 1.391h-13.211c-1.536 0-2.781 1.245-2.781 2.781v23.641c0 1.536 1.245 2.781 2.781 2.781h38.939c1.536 0 2.781-1.245 2.781-2.781v-23.641c0-1.536-1.245-2.781-2.781-2.781h-4.867v-1.391h-4.867v1.391c0 0-3.398-0.065-3.477-0.022l-0.353-1.38-0.342-1.347v-0.033h-11.125v0.033l-0.008-0.033zM3.477 5.476h4.172v2.781h-4.172v-2.781zM10.43 5.476h2.781v4.205c1.11-1.317 2.493-2.376 4.055-3.102s3.263-1.103 4.985-1.103v2.781c-2.193-0-4.312 0.797-5.961 2.243s-2.716 3.443-3.002 5.617c-0.051 0.391-0.076 0.785-0.076 1.179 0 2.397 0.952 4.697 2.648 6.392s3.994 2.648 6.392 2.648v2.781c-0.49-0-0.98-0.031-1.467-0.092-2.952-0.369-5.656-1.837-7.573-4.112v4.205h-2.781v-23.641zM37.548 5.476h3.477l-6.953 11.821 6.953 11.821h-3.477l-4.343-7.38c-0.705 1.739-1.814 3.286-3.235 4.511s-3.114 2.095-4.938 2.537v-2.887c1.819-0.588 3.404-1.737 4.528-3.283s1.73-3.408 1.73-5.319c0-1.911-0.605-3.773-1.73-5.319s-2.71-2.695-4.528-3.283v-2.887c1.824 0.442 3.517 1.311 4.938 2.537s2.53 2.772 3.235 4.511l4.343-7.38zM20.306 10.62c1.51 0.16 0.871 1.304 0 1.464-1.001 0.374-1.873 1.028-2.512 1.885-0.302 0.603-1.812 0.685-1.649 0 0.798-1.632 2.384-2.831 4.161-3.349z"></path>
</symbol>
<symbol id="icon-phone" viewBox="0 0 32 32">
<path d="M21.4 19.846c-1.923 1.923-1.923 3.846-3.846 3.846s-3.846-1.923-5.769-3.846c-1.923-1.923-3.846-3.846-3.846-5.769s1.923-1.923 3.846-3.846c1.923-1.923-3.846-7.692-5.769-7.692s-5.769 5.769-5.769 5.769c0 3.846 3.951 11.644 7.692 15.385s11.539 7.692 15.385 7.692c0 0 5.769-3.846 5.769-5.769s-5.769-7.692-7.692-5.769z"></path>
</symbol>
<symbol id="icon-image" viewBox="0 0 32 32">
<path d="M29.996 4c0.001 0.001 0.003 0.002 0.004 0.004v23.993c-0.001 0.001-0.002 0.003-0.004 0.004h-27.993c-0.001-0.001-0.003-0.002-0.004-0.004v-23.993c0.001-0.001 0.002-0.003 0.004-0.004h27.993zM30 2h-28c-1.1 0-2 0.9-2 2v24c0 1.1 0.9 2 2 2h28c1.1 0 2-0.9 2-2v-24c0-1.1-0.9-2-2-2v0z"></path>
<path d="M26 9c0 1.657-1.343 3-3 3s-3-1.343-3-3 1.343-3 3-3 3 1.343 3 3z"></path>
<path d="M28 26h-24v-4l7-12 8 10h2l7-6z"></path>
</symbol>
<symbol id="icon-camera" viewBox="0 0 32 32">
<path d="M9.5 18c0 3.59 2.91 6.5 6.5 6.5s6.5-2.91 6.5-6.5c0-3.59-2.91-6.5-6.5-6.5s-6.5 2.91-6.5 6.5zM30 7h-7c-0.5-2-1-4-3-4h-8c-2 0-2.5 2-3 4h-7c-1.1 0-2 0.9-2 2v18c0 1.1 0.9 2 2 2h28c1.1 0 2-0.9 2-2v-18c0-1.1-0.9-2-2-2zM16 26.875c-4.902 0-8.875-3.973-8.875-8.875s3.973-8.875 8.875-8.875c4.902 0 8.875 3.973 8.875 8.875s-3.973 8.875-8.875 8.875zM30 13h-4v-2h4v2z"></path>
</symbol>
<symbol id="icon-cross" viewBox="0 0 32 32">
<path d="M31.708 25.708c-0-0-0-0-0-0l-9.708-9.708 9.708-9.708c0-0 0-0 0-0 0.105-0.105 0.18-0.227 0.229-0.357 0.133-0.356 0.057-0.771-0.229-1.057l-4.586-4.586c-0.286-0.286-0.702-0.361-1.057-0.229-0.13 0.048-0.252 0.124-0.357 0.228 0 0-0 0-0 0l-9.708 9.708-9.708-9.708c-0-0-0-0-0-0-0.105-0.104-0.227-0.18-0.357-0.228-0.356-0.133-0.771-0.057-1.057 0.229l-4.586 4.586c-0.286 0.286-0.361 0.702-0.229 1.057 0.049 0.13 0.124 0.252 0.229 0.357 0 0 0 0 0 0l9.708 9.708-9.708 9.708c-0 0-0 0-0 0-0.104 0.105-0.18 0.227-0.229 0.357-0.133 0.355-0.057 0.771 0.229 1.057l4.586 4.586c0.286 0.286 0.702 0.361 1.057 0.229 0.13-0.049 0.252-0.124 0.357-0.229 0-0 0-0 0-0l9.708-9.708 9.708 9.708c0 0 0 0 0 0 0.105 0.105 0.227 0.18 0.357 0.229 0.356 0.133 0.771 0.057 1.057-0.229l4.586-4.586c0.286-0.286 0.362-0.702 0.229-1.057-0.049-0.13-0.124-0.252-0.229-0.357z"></path>
</symbol>
<symbol id="icon-play" viewBox="0 0 32 32">
<path d="M6 4l20 12-20 12z"></path>
</symbol>
</defs>
</svg>
