<svg xmlns="http://www.w3.org/2000/svg" viewBox="0 0 45 32">
  <path d="M16.68-0.087l-0.345 1.391-0.342 1.391h-13.211c-1.536 0-2.781 1.245-2.781 2.781v23.641c0 1.536 1.245 2.781 2.781 2.781h38.939c1.536 0 2.781-1.245 2.781-2.781v-23.641c0-1.536-1.245-2.781-2.781-2.781h-4.867v-1.391h-4.867v1.391c0 0-3.398-0.065-3.477-0.022l-0.353-1.38-0.342-1.347v-0.033h-11.125v0.033l-0.008-0.033zM3.477 5.476h4.172v2.781h-4.172v-2.781zM10.43 5.476h2.781v4.205c1.11-1.317 2.493-2.376 4.055-3.102s3.263-1.103 4.985-1.103v2.781c-2.193-0-4.312 0.797-5.961 2.243s-2.716 3.443-3.002 5.617c-0.051 0.391-0.076 0.785-0.076 1.179 0 2.397 0.952 4.697 2.648 6.392s3.994 2.648 6.392 2.648v2.781c-0.49-0-0.98-0.031-1.467-0.092-2.952-0.369-5.656-1.837-7.573-4.112v4.205h-2.781v-23.641zM37.548 5.476h3.477l-6.953 11.821 6.953 11.821h-3.477l-4.343-7.38c-0.705 1.739-1.814 3.286-3.235 4.511s-3.114 2.095-4.938 2.537v-2.887c1.819-0.588 3.404-1.737 4.528-3.283s1.73-3.408 1.73-5.319c0-1.911-0.605-3.773-1.73-5.319s-2.71-2.695-4.528-3.283v-2.887c1.824 0.442 3.517 1.311 4.938 2.537s2.53 2.772 3.235 4.511l4.343-7.38zM20.306 10.62c1.51 0.16 0.871 1.304 0 1.464-1.001 0.374-1.873 1.028-2.512 1.885-0.302 0.603-1.812 0.685-1.649 0 0.798-1.632 2.384-2.831 4.161-3.349z"/>
</svg>
